<?xml version="1.0" encoding="UTF-8"?>
<svg version="1.1" xmlns="http://www.w3.org/2000/svg" width="172" height="115">
<path d="M0 0 C54.45 0 108.9 0 165 0 C165 3.3 165 6.6 165 10 C110.55 10 56.1 10 0 10 C0 6.7 0 3.4 0 0 Z " fill="#000000" transform="translate(3,52)"/>
<path d="M0 0 C36.3 0 72.6 0 110 0 C110 3.3 110 6.6 110 10 C73.7 10 37.4 10 0 10 C0 6.7 0 3.4 0 0 Z " fill="#000000" transform="translate(13,102)"/>
<path d="M0 0 C29.7 0 59.4 0 90 0 C90 3.3 90 6.6 90 10 C60.3 10 30.6 10 0 10 C0 6.7 0 3.4 0 0 Z " fill="#000000" transform="translate(13,2)"/>
</svg>
